<svg width="18" height="13" viewBox="0 0 18 13" fill="none" xmlns="http://www.w3.org/2000/svg">
<path d="M9 4.15234C7.76953 4.15234 6.8125 5.32812 6.8125 6.77734C6.8125 8.25391 7.76953 9.42969 9 9.42969C10.2031 9.42969 11.1875 8.25391 11.1875 6.77734C11.1875 5.32812 10.2031 4.15234 9 4.15234ZM17.2305 1.25391C16.1641 0.816406 15.0977 0.625 14.0312 0.625C10.668 0.625 7.30469 2.34766 3.94141 2.34766C3.09375 2.34766 2.24609 2.23828 1.39844 1.96484C1.31641 1.9375 1.20703 1.91016 1.125 1.91016C0.660156 1.91016 0.25 2.29297 0.25 2.78516V11.4805C0.25 11.8086 0.441406 12.1367 0.742188 12.2734C1.80859 12.7109 2.875 12.875 3.94141 12.875C7.30469 12.875 10.668 11.1797 14.0312 11.1797C14.8789 11.1797 15.7266 11.2891 16.5742 11.5625C16.6562 11.5898 16.7656 11.5898 16.8477 11.5898C17.3125 11.5898 17.75 11.2344 17.75 10.7422V2.04688C17.75 1.71875 17.5312 1.39062 17.2305 1.25391ZM16.4375 8.58203C15.6992 8.66406 15.0977 9.21094 14.9336 9.92188C14.6328 9.89453 14.3594 9.86719 14.0312 9.86719C12.1992 9.86719 10.3945 10.332 8.67188 10.7695C7.00391 11.1797 5.44531 11.5625 3.94141 11.5625C3.72266 11.5625 3.50391 11.5625 3.28516 11.5625C3.25781 10.6055 2.49219 9.86719 1.5625 9.86719V5.02734C2.41016 5.02734 3.09375 4.42578 3.25781 3.60547C3.47656 3.63281 3.69531 3.66016 3.94141 3.66016C5.77344 3.66016 7.57812 3.19531 9.30078 2.75781C10.9688 2.34766 12.5273 1.9375 14.0312 1.9375C14.332 1.9375 14.6055 1.96484 14.9062 1.99219C14.9336 2.86719 15.5898 3.57812 16.4375 3.6875V8.58203Z" fill="white"/>
</svg>
