<svg width="8" height="8" viewBox="0 0 8 8" fill="#8b8b90;" xmlns="http://www.w3.org/2000/svg">
<path d="M5.1875 3.9875L7.8875 1.3125C8.0375 1.1625 8.0375 0.8875 7.8875 0.7375L7.2625 0.1125C7.1125 -0.0375 6.8375 -0.0375 6.6875 0.1125L4.0125 2.8125L1.3125 0.1125C1.1625 -0.0375 0.8875 -0.0375 0.7375 0.1125L0.1125 0.7375C-0.0375 0.8875 -0.0375 1.1625 0.1125 1.3125L2.8125 3.9875L0.1125 6.6875C-0.0375 6.8375 -0.0375 7.1125 0.1125 7.2625L0.7375 7.8875C0.8875 8.0375 1.1625 8.0375 1.3125 7.8875L4.0125 5.1875L6.6875 7.8875C6.8375 8.0375 7.1125 8.0375 7.2625 7.8875L7.8875 7.2625C8.0375 7.1125 8.0375 6.8375 7.8875 6.6875L5.1875 3.9875Z" fill="#fff"/>
</svg>
