<svg width="12" height="12" viewBox="0 0 12 12" fill="none" xmlns="http://www.w3.org/2000/svg">
<path d="M5.84255 0.101695L5.30653 0.616949C5.17253 0.752542 5.17253 0.969491 5.30653 1.07797L9.46064 5.28136H0.321608C0.134003 5.28136 0 5.44407 0 5.60678V6.3661C0 6.55593 0.134003 6.69153 0.321608 6.69153H9.46064L5.30653 10.922C5.17253 11.0305 5.17253 11.2475 5.30653 11.3831L5.84255 11.8983C5.94975 12.0339 6.16415 12.0339 6.29816 11.8983L11.8995 6.23051C12.0335 6.09491 12.0335 5.90508 11.8995 5.76949L6.29816 0.101695C6.16415 -0.0338983 5.94975 -0.0338983 5.84255 0.101695Z" fill="white"/>
</svg>
