<svg width="14" height="15" viewBox="0 0 14 15" fill="none" xmlns="http://www.w3.org/2000/svg">
<path d="M13.6719 0.96875H12.9062C12.7148 0.96875 12.5781 1.13281 12.5781 1.32422L12.6328 4.00391C11.4297 2.19922 9.35156 0.96875 7 0.96875C3.66406 0.96875 0.902344 3.34766 0.328125 6.49219C0.273438 6.71094 0.4375 6.875 0.65625 6.875H1.42188C1.58594 6.875 1.72266 6.79297 1.75 6.62891C2.26953 4.22266 4.40234 2.39062 7 2.39062C9.16016 2.39062 11.0195 3.70312 11.8672 5.5625L8.42188 5.48047C8.23047 5.48047 8.09375 5.61719 8.09375 5.80859V6.54688C8.09375 6.73828 8.23047 6.875 8.42188 6.875H13.6719C13.8359 6.875 14 6.73828 14 6.54688V1.29688C14 1.13281 13.8359 0.96875 13.6719 0.96875ZM13.3164 8.625H12.5508C12.3867 8.625 12.25 8.73438 12.2227 8.89844C11.7031 11.3047 9.57031 13.1094 7 13.1094C4.8125 13.1094 2.95312 11.8242 2.10547 9.96484L5.55078 10.0469C5.74219 10.0469 5.90625 9.91016 5.90625 9.71875V8.95312C5.90625 8.78906 5.74219 8.625 5.57812 8.625H0.328125C0.136719 8.625 0 8.78906 0 8.95312V14.2031C0 14.3945 0.136719 14.5312 0.328125 14.5312H1.06641C1.25781 14.5312 1.39453 14.3945 1.39453 14.2031L1.33984 11.5234C2.54297 13.3281 4.62109 14.5312 7 14.5312C10.3086 14.5312 13.0703 12.1797 13.6445 9.03516C13.6992 8.81641 13.5352 8.625 13.3164 8.625Z" fill="rgb(139, 139, 144)"/>
</svg>
