<svg width="16" height="17" viewBox="0 0 16 17" fill="none" xmlns="http://www.w3.org/2000/svg">
<path opacity="0.5" d="M13.5158 6.10436L12.5158 6.096L12.5278 4.65855C12.5487 2.15864 10.5658 0.110725 8.06616 0.0585614C5.56625 0.0376466 3.54933 2.05209 3.52867 4.52076L3.51612 6.0207L2.51616 6.01234C1.67244 6.00528 1.01046 6.68727 1.00366 7.49974L0.9451 14.4995C0.938042 15.3432 1.58878 16.0049 2.4325 16.012L13.4321 16.104C14.2446 16.1108 14.9376 15.4603 14.9446 14.6166L15.0032 7.61686C15.01 6.80439 14.3282 6.11116 13.5158 6.10436ZM5.02862 4.53331C5.04221 2.90836 6.39742 1.54465 8.05361 1.55851C9.67856 1.5721 11.042 2.95856 11.0284 4.5835L11.0159 6.08345L5.01607 6.03325L5.02862 4.53331ZM13.4447 14.6041L2.44505 14.512L2.50361 7.51229L13.5032 7.60431L13.4447 14.6041Z" fill="#161721"/>
</svg>
