<svg width="14" height="13" viewBox="0 0 14 13" fill="none" xmlns="http://www.w3.org/2000/svg">
<path d="M13.0156 4.31641L12.25 3.55078C12.1953 3.49609 12.1133 3.46875 12.0039 3.46875C11.9219 3.46875 11.8672 3.49609 11.8125 3.55078L4.75781 10.6055L2.16016 8.00781C2.10547 7.95312 2.05078 7.92578 1.96875 7.92578C1.85938 7.92578 1.77734 7.95312 1.72266 8.00781L0.957031 8.77344C0.902344 8.82812 0.875 8.91016 0.875 9.01953C0.875 9.10156 0.902344 9.18359 0.957031 9.21094L4.53906 12.8203C4.59375 12.875 4.67578 12.875 4.75781 12.875C4.86719 12.875 4.92188 12.875 4.97656 12.8203L13.0156 4.78125C13.0703 4.69922 13.0977 4.64453 13.0977 4.53516C13.125 4.45312 13.0703 4.37109 13.0156 4.31641ZM4.45703 7.57031C4.53906 7.625 4.62109 7.625 4.70312 7.625C4.8125 7.625 4.86719 7.625 4.92188 7.57031L10.5273 1.96484C10.582 1.88281 10.6367 1.80078 10.6367 1.71875C10.6367 1.63672 10.582 1.55469 10.5273 1.5L9.76172 0.707031C9.70703 0.652344 9.625 0.625 9.51562 0.625C9.43359 0.625 9.35156 0.652344 9.29688 0.707031L4.70312 5.35547L3.0625 3.6875C3.00781 3.63281 2.92578 3.57812 2.84375 3.57812C2.76172 3.57812 2.67969 3.63281 2.59766 3.6875L1.83203 4.45312C1.77734 4.50781 1.75 4.58984 1.75 4.69922C1.75 4.78125 1.77734 4.86328 1.83203 4.91797L4.45703 7.57031Z" fill="#5BBEB0"/>
</svg>
