<svg width="18" height="23" viewBox="0 0 18 23" fill="none" xmlns="http://www.w3.org/2000/svg">
<path opacity="0.5" d="M17 7.3831C17 8.18873 16.854 8.91174 16.562 9.55211C16.2701 10.1718 15.9197 10.6986 15.5109 11.1324C15.1217 11.5455 14.5864 12.0516 13.9051 12.6507C13.2044 13.2498 12.6788 13.7455 12.3285 14.138C11.9781 14.5305 11.7348 14.985 11.5985 15.5014C11.4623 16.0592 11.1995 16.338 10.8102 16.338H7.24818C7.03406 16.338 6.84915 16.2554 6.69343 16.0901C6.53771 15.9249 6.45985 15.7286 6.45985 15.5014C6.45985 14.7784 6.60584 14.1277 6.89781 13.5493C7.20925 12.9709 7.56934 12.4751 7.9781 12.062C8.38686 11.6282 8.93187 11.1221 9.61314 10.5437C10.3333 9.9446 10.8686 9.44883 11.219 9.05634C11.5693 8.64319 11.7445 8.19906 11.7445 7.72394C11.7445 7.12488 11.5207 6.66009 11.073 6.32958C10.6448 5.9784 9.9927 5.80282 9.11679 5.80282C8.45499 5.80282 7.92944 5.89578 7.54015 6.08169C7.17032 6.24695 6.89781 6.44319 6.72263 6.67042C6.54745 6.89765 6.37226 7.18685 6.19708 7.53803C6.08029 7.84789 5.95377 8.08545 5.81752 8.2507C5.68127 8.39531 5.47689 8.46761 5.20438 8.46761H1.64234C1.46715 8.46761 1.31144 8.40563 1.17518 8.28169C1.05839 8.15775 1 7.99249 1 7.78592C1.01946 6.77371 1.3601 5.74085 2.0219 4.68732C2.70316 3.6338 3.6472 2.75587 4.85401 2.05352C6.08029 1.35117 7.50122 1 9.11679 1C10.5572 1 11.8808 1.27887 13.0876 1.83662C14.2944 2.37371 15.2482 3.13803 15.9489 4.12958C16.6496 5.10047 17 6.18498 17 7.3831ZM11.6569 20.9662C11.6569 21.1934 11.5791 21.3897 11.4234 21.5549C11.2676 21.7202 11.0827 21.8028 10.8686 21.8028H7.18978C6.97567 21.8028 6.79075 21.7202 6.63504 21.5549C6.47932 21.3897 6.40146 21.1934 6.40146 20.9662V17.8366C6.40146 17.6094 6.47932 17.4131 6.63504 17.2479C6.79075 17.0826 6.97567 17 7.18978 17H10.8686C11.0827 17 11.2676 17.0826 11.4234 17.2479C11.5791 17.4131 11.6569 17.6094 11.6569 17.8366V20.9662Z" stroke="#404144" stroke-width="2" stroke-linecap="round" stroke-linejoin="round"/>
</svg>
