<svg width="24" height="24" viewBox="0 0 24 24" fill="none" xmlns="http://www.w3.org/2000/svg">
<path d="M13.4658 1.82085C12.5551 1.31088 11.4449 1.31088 10.5342 1.82085L2.02279 6.58724C1.39118 6.94094 1 7.60834 1 8.33225V21C1 22.1046 1.89543 23 3 23H7.25C8.35457 23 9.25 22.1046 9.25 21V16.08C9.25 15.5277 9.69772 15.08 10.25 15.08H13.75C14.3023 15.08 14.75 15.5277 14.75 16.08V21C14.75 22.1046 15.6454 23 16.75 23H21C22.1046 23 23 22.1046 23 21V8.33225C23 7.60834 22.6088 6.94094 21.9772 6.58724L13.4658 1.82085Z" fill="#5BBEB0" stroke="#5BBEB0" stroke-width="2" stroke-linecap="round" stroke-linejoin="round"/>
</svg>
