<svg width="22" height="24" viewBox="0 0 22 24" fill="none" xmlns="http://www.w3.org/2000/svg">
<path opacity="0.5" d="M20.3853 14.3869L19.9273 14.1102C18.4142 13.1944 18.4092 10.8087 19.9273 9.8898L20.3853 9.61309C20.9725 9.2573 21.1746 8.46754 20.8355 7.85223L19.3458 5.14777C19.0063 4.53246 18.2527 4.32063 17.6651 4.67598L17.2096 4.95184C16.5055 5.37766 15.6227 5.37121 14.9056 4.93508L14.8707 4.91402C14.161 4.48734 13.7198 3.69457 13.7198 2.84508V2.28906C13.7198 1.57836 13.1683 1 12.4897 1H9.51034C8.83174 1 8.28024 1.57836 8.28024 2.28906V2.84508C8.28024 3.69457 7.83904 4.48734 7.13009 4.91359L7.09483 4.93465C6.37727 5.37121 5.49446 5.37766 4.79044 4.95184C4.33206 4.67426 3.9798 4.38456 3.40124 4.5475C3.08387 4.63645 2.81858 4.84957 2.65415 5.14777L1.1645 7.85223C0.8254 8.46754 1.02755 9.2573 1.61472 9.61309L2.07273 9.8898C2.77552 10.3152 3.21139 11.1166 3.20934 11.9802V12.0193C3.21139 12.8834 2.77552 13.6848 2.07273 14.1102L1.61472 14.3869C1.02755 14.7427 0.8254 15.5325 1.1645 16.1478L2.65415 18.8522C2.99366 19.4675 3.74731 19.6794 4.33448 19.324L4.79044 19.0482C5.49446 18.6223 6.37727 18.6288 7.09442 19.0649L7.12927 19.086C7.83904 19.5127 8.28024 20.3054 8.28024 21.1549V21.7109C8.28024 22.4216 8.83174 23 9.51034 23H12.4897C13.1683 23 13.7198 22.4216 13.7198 21.7109V21.1549C13.7198 20.3054 14.161 19.5127 14.8711 19.086L14.9052 19.0654C15.6227 18.6288 16.5055 18.6223 17.2096 19.0482L17.6655 19.324C18.2527 19.6794 19.0067 19.4675 19.3458 18.8522L20.8355 16.1478C21.1746 15.5325 20.9725 14.7427 20.3853 14.3869Z" stroke="#404144" stroke-width="2" stroke-linecap="round" stroke-linejoin="round"/>
<path opacity="0.5" d="M10.9996 15.5C8.99459 15.5 7.36328 14.2056 7.36328 12C7.36328 9.79444 8.99459 8.5 10.9996 8.5C13.0047 8.5 14.636 9.79444 14.636 12C14.636 14.2056 13.0047 15.5 10.9996 15.5Z" stroke="#404144" stroke-width="2" stroke-linecap="round" stroke-linejoin="round"/>
</svg>
