<svg width="9" height="9" viewBox="0 0 9 9" fill="none" xmlns="http://www.w3.org/2000/svg">
<path d="M5.67383 4.36133L8.62695 1.43555C8.79102 1.27148 8.79102 0.970703 8.62695 0.806641L7.94336 0.123047C7.7793 -0.0410156 7.47852 -0.0410156 7.31445 0.123047L4.38867 3.07617L1.43555 0.123047C1.27148 -0.0410156 0.970703 -0.0410156 0.806641 0.123047L0.123047 0.806641C-0.0410156 0.970703 -0.0410156 1.27148 0.123047 1.43555L3.07617 4.36133L0.123047 7.31445C-0.0410156 7.47852 -0.0410156 7.7793 0.123047 7.94336L0.806641 8.62695C0.970703 8.79102 1.27148 8.79102 1.43555 8.62695L4.38867 5.67383L7.31445 8.62695C7.47852 8.79102 7.7793 8.79102 7.94336 8.62695L8.62695 7.94336C8.79102 7.7793 8.79102 7.47852 8.62695 7.31445L5.67383 4.36133Z" fill="#5BBEB0"/>
</svg>
