<svg width="18" height="13" viewBox="0 0 18 13" fill="none" xmlns="http://www.w3.org/2000/svg">
<path d="M8.75 3.52734C7.51953 3.52734 6.5625 4.70312 6.5625 6.15234C6.5625 7.62891 7.51953 8.80469 8.75 8.80469C9.95312 8.80469 10.9375 7.62891 10.9375 6.15234C10.9375 4.70312 9.95312 3.52734 8.75 3.52734ZM16.9805 0.628906C15.9141 0.191406 14.8477 0 13.7812 0C10.418 0 7.05469 1.72266 3.69141 1.72266C2.84375 1.72266 1.99609 1.61328 1.14844 1.33984C1.06641 1.3125 0.957031 1.28516 0.875 1.28516C0.410156 1.28516 0 1.66797 0 2.16016V10.8555C0 11.1836 0.191406 11.5117 0.492188 11.6484C1.55859 12.0859 2.625 12.25 3.69141 12.25C7.05469 12.25 10.418 10.5547 13.7812 10.5547C14.6289 10.5547 15.4766 10.6641 16.3242 10.9375C16.4062 10.9648 16.5156 10.9648 16.5977 10.9648C17.0625 10.9648 17.5 10.6094 17.5 10.1172V1.42188C17.5 1.09375 17.2812 0.765625 16.9805 0.628906ZM16.1875 7.95703C15.4492 8.03906 14.8477 8.58594 14.6836 9.29688C14.3828 9.26953 14.1094 9.24219 13.7812 9.24219C11.9492 9.24219 10.1445 9.70703 8.42188 10.1445C6.75391 10.5547 5.19531 10.9375 3.69141 10.9375C3.47266 10.9375 3.25391 10.9375 3.03516 10.9375C3.00781 9.98047 2.24219 9.24219 1.3125 9.24219V4.40234C2.16016 4.40234 2.84375 3.80078 3.00781 2.98047C3.22656 3.00781 3.44531 3.03516 3.69141 3.03516C5.52344 3.03516 7.32812 2.57031 9.05078 2.13281C10.7188 1.72266 12.2773 1.3125 13.7812 1.3125C14.082 1.3125 14.3555 1.33984 14.6562 1.36719C14.6836 2.24219 15.3398 2.95312 16.1875 3.0625V7.95703Z" fill="#FF6868"/>
</svg>
