<svg width="16" height="15" viewBox="0 0 16 15" fill="none" xmlns="http://www.w3.org/2000/svg">
<path d="M6.90625 6.35547L7.09766 9.41797C7.09766 9.60938 7.23438 9.71875 7.42578 9.71875H8.54688C8.71094 9.71875 8.875 9.58203 8.875 9.41797L9.06641 6.35547C9.06641 6.16406 8.92969 6 8.73828 6H7.23438C7.04297 6 6.90625 6.16406 6.90625 6.35547ZM9.14844 11.25C9.14844 10.6211 8.62891 10.1016 8 10.1016C7.34375 10.1016 6.85156 10.6211 6.85156 11.25C6.85156 11.9062 7.34375 12.3984 8 12.3984C8.62891 12.3984 9.14844 11.9062 9.14844 11.25ZM9.12109 1.40625C8.62891 0.558594 7.34375 0.53125 6.85156 1.40625L0.289062 12.8086C-0.203125 13.6562 0.425781 14.75 1.4375 14.75H14.5352C15.5469 14.75 16.1758 13.6836 15.6836 12.8086L9.12109 1.40625ZM1.57422 13.2188L7.83594 2.33594C7.91797 2.22656 8.05469 2.22656 8.13672 2.33594L14.3984 13.2188C14.4805 13.3281 14.3984 13.4375 14.2617 13.4375H1.71094C1.57422 13.4375 1.49219 13.3281 1.57422 13.2188Z" fill="#FD6764"/>
</svg>
